<?xml version="1.0" encoding="UTF-8" standalone="no"?>
<!-- Created with Inkscape (http://www.inkscape.org/) -->
<svg
   xmlns:dc="http://purl.org/dc/elements/1.1/"
   xmlns:cc="http://creativecommons.org/ns#"
   xmlns:rdf="http://www.w3.org/1999/02/22-rdf-syntax-ns#"
   xmlns:svg="http://www.w3.org/2000/svg"
   xmlns="http://www.w3.org/2000/svg"
   xmlns:sodipodi="http://sodipodi.sourceforge.net/DTD/sodipodi-0.dtd"
   xmlns:inkscape="http://www.inkscape.org/namespaces/inkscape"
   id="svg2"
   sodipodi:version="0.32"
   inkscape:version="0.46"
   width="744.095"
   height="1052.3625"
   xml:space="preserve"
   sodipodi:docname="logo-matirelire.svg"
   inkscape:output_extension="org.inkscape.output.svg.inkscape"><metadata
     id="metadata7"><rdf:RDF><cc:Work
         rdf:about=""><dc:format>image/svg+xml</dc:format><dc:type
           rdf:resource="http://purl.org/dc/dcmitype/StillImage" /></cc:Work></rdf:RDF></metadata><defs
     id="defs5"><inkscape:perspective
       sodipodi:type="inkscape:persp3d"
       inkscape:vp_x="0 : 526.18109 : 1"
       inkscape:vp_y="0 : 1000 : 0"
       inkscape:vp_z="744.09448 : 526.18109 : 1"
       inkscape:persp3d-origin="372.04724 : 350.78739 : 1"
       id="perspective9" /><linearGradient
       x1="0"
       y1="0"
       x2="1"
       y2="0"
       gradientUnits="userSpaceOnUse"
       gradientTransform="matrix(-1.53e-5,286.86621,286.86621,1.53e-5,299.22363,436.48389)"
       spreadMethod="pad"
       id="linearGradient25"><stop
         style="stop-opacity:1;stop-color:#ffffff"
         offset="0"
         id="stop27" /><stop
         style="stop-opacity:1;stop-color:#ee127b"
         offset="1"
         id="stop29" /></linearGradient><clipPath
       clipPathUnits="userSpaceOnUse"
       id="clipPath37"><path
         d="M 0,841.89 L 595.276,841.89 L 595.276,0 L 0,0 L 0,841.89 z"
         id="path39" /></clipPath><clipPath
       clipPathUnits="userSpaceOnUse"
       id="clipPath49"><path
         d="M 154.8,704.621 L 433.296,704.621 L 433.296,530.649 L 154.8,530.649 L 154.8,704.621 z"
         id="path51" /></clipPath><clipPath
       clipPathUnits="userSpaceOnUse"
       id="clipPath65"><path
         d="M 154.8,607.854 L 184.536,607.854 L 184.536,500.2 L 154.8,500.2 L 154.8,607.854 z"
         id="path67" /></clipPath><clipPath
       clipPathUnits="userSpaceOnUse"
       id="clipPath109"><path
         d="M 230.802,474.785 L 255.952,474.785 L 255.952,444.996 L 230.802,444.996 L 230.802,474.785 z"
         id="path111" /></clipPath><clipPath
       clipPathUnits="userSpaceOnUse"
       id="clipPath125"><path
         d="M 328.162,471.793 L 356.302,471.793 L 356.302,448.678 L 328.162,448.678 L 328.162,471.793 z"
         id="path127" /></clipPath></defs><sodipodi:namedview
     inkscape:window-height="674"
     inkscape:window-width="640"
     inkscape:pageshadow="2"
     inkscape:pageopacity="0.0"
     guidetolerance="10.0"
     gridtolerance="10.0"
     objecttolerance="10.0"
     borderopacity="1.0"
     bordercolor="#666666"
     pagecolor="#ffffff"
     id="base"
     showgrid="false"
     inkscape:zoom="0.44281317"
     inkscape:cx="372.04749"
     inkscape:cy="526.18127"
     inkscape:window-x="222"
     inkscape:window-y="137"
     inkscape:current-layer="g11" /><g
     id="g11"
     inkscape:groupmode="layer"
     inkscape:label="logo-matirelire"
     transform="matrix(1.25,0,0,-1.25,0,1052.3625)"><g
       id="g13"><g
         id="g15"><g
           id="g21"><g
             id="g23"><path
               d="M 248.473,662.485 C 242.779,659.939 237.382,656.959 232.277,653.623 L 232.277,653.623 L 219.422,668.218 L 222.004,646.052 C 211.074,636.952 202.083,625.863 195.777,613.084 L 195.777,613.084 L 168.931,613.084 C 158.026,613.084 149.181,586.37 149.181,553.421 L 149.181,553.421 C 149.181,520.467 158.026,493.754 168.931,493.754 L 168.931,493.754 L 213.971,493.754 C 220.787,486.229 228.655,479.677 237.301,474.264 L 237.301,474.264 L 228.466,466.06 C 226.3,464.075 229.406,457.165 235.4,450.634 L 235.4,450.634 C 241.395,444.095 248.007,440.405 250.172,442.389 L 250.172,442.389 C 250.222,442.435 250.253,442.495 250.299,442.544 L 250.299,442.544 L 255.766,447.377 C 257.981,445.394 260.846,443.358 264.135,441.52 L 264.135,441.52 C 272.865,436.642 281.252,435.029 282.867,437.918 L 282.867,437.918 C 282.904,437.985 282.917,438.061 282.945,438.131 L 282.945,438.131 L 293.877,457.557 C 294.486,457.546 295.087,457.502 295.7,457.502 L 295.7,457.502 C 306.375,457.502 316.685,459.05 326.447,461.88 L 326.447,461.88 L 334.751,446.95 C 334.773,446.886 334.782,446.82 334.819,446.76 L 334.819,446.76 C 336.233,444.191 343.684,445.57 351.455,449.846 L 351.455,449.846 C 353.147,450.779 354.681,451.775 356.087,452.783 L 356.087,452.783 L 360.266,448.818 C 360.312,448.756 360.321,448.665 360.374,448.609 L 360.374,448.609 C 362.693,446.248 370.362,450.017 377.498,457.03 L 377.498,457.03 C 384.628,464.037 388.534,471.637 386.209,473.999 L 386.209,473.999 L 372.206,488.427 C 393.01,508.477 405.965,536.599 405.965,567.769 L 405.965,567.769 C 405.965,570.906 405.815,573.999 405.579,577.061 L 405.579,577.061 C 407.038,580.96 410.84,589.766 414.022,585.389 L 414.022,585.389 C 418.052,579.851 435.169,569.778 430.139,587.403 L 430.139,587.403 C 429.206,590.67 428.2,593.446 427.143,595.828 L 427.143,595.828 C 427.725,596.169 428.318,596.11 428.885,595.336 L 428.885,595.336 C 431.249,592.079 441.313,586.158 438.355,596.521 L 438.355,596.521 C 438.218,597.006 438.072,597.453 437.928,597.903 L 437.928,597.903 C 439.905,600.204 443.606,603.388 449.266,604.018 L 449.266,604.018 C 445.377,606.845 439.267,604.466 435.969,602.796 L 435.969,602.796 C 430.216,613.974 422.383,606.403 421.082,605.02 L 421.082,605.02 C 412.393,613.059 402.919,604.124 400.854,601.962 L 400.854,601.962 C 387.313,645.544 347.845,675.931 295.7,673.505 L 295.7,673.505 C 291.305,673.3 286.989,672.835 282.733,672.228 L 282.733,672.228 L 267,723.35 L 248.473,662.485 z"
               style="fill:url(#linearGradient25);stroke:none"
               id="path31" /></g></g></g></g><g
       id="g33"><g
         id="g35"
         clip-path="url(#clipPath37)"><g
           id="g41"
           transform="translate(437.9287,597.9033)"><path
             d="M 0,0 C 1.976,2.301 5.678,5.485 11.337,6.115 C 7.448,8.941 1.338,6.563 -1.96,4.892 C -7.713,16.07 -15.546,8.5 -16.847,7.117 C -25.536,15.156 -35.01,6.221 -37.075,4.059 C -50.615,47.641 -90.083,78.027 -142.229,75.602 C -146.624,75.396 -150.939,74.932 -155.195,74.325 L -170.929,125.447 L -189.456,64.581 C -195.149,62.036 -200.547,59.056 -205.652,55.72 L -218.507,70.314 L -215.925,48.149 C -226.854,39.048 -235.846,27.959 -242.152,15.181 L -268.998,15.181 C -279.902,15.181 -288.747,-11.533 -288.747,-44.483 C -288.747,-77.436 -279.902,-104.15 -268.998,-104.15 L -223.958,-104.15 C -217.142,-111.674 -209.273,-118.226 -200.627,-123.64 L -209.463,-131.844 C -211.628,-133.829 -208.523,-140.738 -202.528,-147.27 C -196.533,-153.808 -189.922,-157.498 -187.757,-155.515 C -187.707,-155.468 -187.676,-155.409 -187.629,-155.359 L -182.163,-150.526 C -179.948,-152.509 -177.083,-154.545 -173.794,-156.383 C -165.064,-161.261 -156.677,-162.874 -155.062,-159.985 C -155.024,-159.918 -155.012,-159.842 -154.984,-159.772 L -144.052,-140.346 C -143.442,-140.357 -142.842,-140.401 -142.229,-140.401 C -131.554,-140.401 -121.244,-138.853 -111.481,-136.023 L -103.178,-150.954 C -103.155,-151.018 -103.146,-151.083 -103.109,-151.144 C -101.696,-153.712 -94.245,-152.333 -86.474,-148.057 C -84.781,-147.124 -83.248,-146.128 -81.842,-145.12 L -77.663,-149.085 C -77.616,-149.147 -77.607,-149.238 -77.555,-149.294 C -75.236,-151.655 -67.567,-147.886 -60.431,-140.874 C -53.3,-133.866 -49.396,-126.267 -51.72,-123.904 L -65.723,-109.476 C -44.919,-89.426 -31.964,-61.305 -31.964,-30.135 C -31.964,-26.997 -32.113,-23.904 -32.35,-20.842 C -30.891,-16.943 -27.089,-8.137 -23.906,-12.515 C -19.877,-18.052 -2.76,-28.125 -7.79,-10.5 C -8.724,-7.233 -9.729,-4.457 -10.786,-2.075 C -10.204,-1.734 -9.61,-1.794 -9.044,-2.567 C -6.68,-5.824 3.385,-11.745 0.426,-1.383 C 0.289,-0.897 0.144,-0.45 0,0 z"
             style="fill:none;stroke:#ee127b;stroke-opacity:1;stroke-width:6.372;stroke-linecap:butt;stroke-linejoin:miter;stroke-miterlimit:4;stroke-dasharray:none"
             id="path43" /></g><g
           id="g45"><g
             id="g47" /><g
             id="g53"><g
               clip-path="url(#clipPath49)"
               opacity="0.5"
               id="g55"><g
                 transform="translate(433.2959,597.8984)"
                 id="g57"><path
                   d="M 0,0 C 0,0 -3.186,5.31 -5.043,5.84 C -6.642,6.297 -11.573,1.456 -12.917,0.1 C -17.366,6.44 -27.642,3.479 -32.657,-5.311 C -35.84,-10.886 -37.968,2.124 -37.968,2.124 C -50.403,42.156 -88.829,71.253 -136.728,69.025 C -140.766,68.837 -150.874,67.989 -154.781,67.433 L -165.932,106.723 L -179.472,59.998 C -186.372,57.875 -194.869,53.096 -200.976,48.052 L -207.08,54.955 L -205.754,44.866 C -218.762,36.637 -228.08,21.565 -233.873,9.827 C -241.427,9.827 -259.048,9.956 -264.623,9.956 C -272.389,6.372 -278.496,-14.336 -278.496,-44.603 C -278.496,-44.603 -217.966,-83.361 -134.603,-59.469 C -52.472,-35.93 -33.722,-32.92 -33.722,-32.92 C -33.722,-32.92 -33.979,-25.488 -34.512,-21.239 C -35.044,-16.991 -27.876,-6.107 -22.832,-5.575 C -19.622,-5.236 -16.199,-6.902 -11.421,-11.15 C -6.642,-15.398 -8.231,-10.088 -11.949,-1.593 C -5.846,5.841 0,0 0,0"
                   style="fill:#ffffff;fill-opacity:1;fill-rule:nonzero;stroke:none"
                   id="path59" /></g></g></g></g><g
           id="g61"><g
             id="g63" /><g
             id="g69"><g
               clip-path="url(#clipPath65)"
               opacity="0.300003"
               id="g71"><g
                 transform="translate(184.5361,554.0269)"
                 id="g73"><path
                   d="M 0,0 C 0,-29.728 -6.654,-53.827 -14.865,-53.827 C -23.081,-53.827 -29.736,-29.728 -29.736,0 C -29.736,29.729 -23.081,53.828 -14.865,53.828 C -6.654,53.828 0,29.729 0,0"
                   style="fill:#ee127b;fill-opacity:1;fill-rule:nonzero;stroke:none"
                   id="path75" /></g></g></g></g><g
           id="g77"
           transform="translate(165.269,553.5742)"><path
             d="M 0,0 C 0,-15.221 -1.462,-27.563 -3.267,-27.563 C -5.071,-27.563 -6.53,-15.221 -6.53,0 C -6.53,15.223 -5.071,27.564 -3.267,27.564 C -1.462,27.564 0,15.223 0,0"
             style="fill:#ee127b;fill-opacity:1;fill-rule:nonzero;stroke:none"
             id="path79" /></g><g
           id="g81"
           transform="translate(179.957,554.4937)"><path
             d="M 0,0 C 0,-19.789 -2.474,-35.833 -5.529,-35.833 C -8.578,-35.833 -11.051,-19.789 -11.051,0 C -11.051,19.789 -8.578,35.833 -5.529,35.833 C -2.474,35.833 0,19.789 0,0"
             style="fill:#ee127b;fill-opacity:1;fill-rule:nonzero;stroke:none"
             id="path83" /></g><g
           id="g85"
           transform="translate(246.7588,583.6338)"><path
             d="M 0,0 C 0,-18.214 -7.725,-32.982 -17.235,-32.982 C -26.752,-32.982 -34.478,-18.214 -34.478,0 C -34.478,18.214 -26.752,32.983 -17.235,32.983 C -7.725,32.983 0,18.214 0,0"
             style="fill:#ffffff;fill-opacity:1;fill-rule:nonzero;stroke:none"
             id="path87" /></g><g
           id="g89"
           transform="translate(231.2813,591.9673)"><path
             d="M 0,0 C 0,-7.837 -2.778,-14.191 -6.201,-14.191 C -9.623,-14.191 -12.401,-7.837 -12.401,0 C -12.401,7.841 -9.623,14.196 -6.201,14.196 C -2.778,14.196 0,7.841 0,0"
             style="fill:#ee127b;fill-opacity:1;fill-rule:nonzero;stroke:none"
             id="path91" /></g><g
           id="g93"
           transform="translate(259.4063,656.2139)"><path
             d="M 0,0 L 6.558,21.549 L 15.929,-8.901 C 15.929,-8.901 7.964,-0.937 0,0"
             style="fill:#ee127b;fill-opacity:1;fill-rule:nonzero;stroke:none"
             id="path95" /></g><g
           id="g97"
           transform="translate(366.5527,465.4966)"><path
             d="M 0,0 C -6.324,-6.012 -9.296,-12.35 -6.62,-14.149 C -3.954,-15.954 3.357,-12.54 9.694,-6.527 C 16.022,-0.52 18.994,5.819 16.315,7.621 C 13.646,9.422 6.335,6.011 0,0"
             style="fill:#ee127b;fill-opacity:1;fill-rule:nonzero;stroke:none"
             id="path99" /></g><g
           id="g101"
           transform="translate(270.5156,452.1436)"><path
             d="M 0,0 C 9.685,-5.413 16.159,-12.273 14.454,-15.321 C 12.749,-18.368 3.519,-16.452 -6.166,-11.038 C -15.854,-5.629 -22.325,1.229 -20.621,4.278 C -18.916,7.327 -9.685,5.412 0,0"
             style="fill:#ee127b;fill-opacity:1;fill-rule:nonzero;stroke:none"
             id="path103" /></g><g
           id="g105"><g
             id="g107" /><g
             id="g113"><g
               clip-path="url(#clipPath109)"
               opacity="0.199997"
               id="g115"><g
                 transform="translate(242.4624,474.7852)"
                 id="g117"><path
                   d="M 0,0 L -11.661,-10.648 C -11.661,-10.648 -8.369,-23.198 5.831,-29.789 C 10.143,-25.986 11.788,-24.592 11.788,-24.592 L 7.433,-18.364 L 13.49,-4.851 C 13.49,-4.851 5.831,-2.916 0,0"
                   style="fill:#ee127b;fill-opacity:1;fill-rule:nonzero;stroke:none"
                   id="path119" /></g></g></g></g><g
           id="g121"><g
             id="g123" /><g
             id="g129"><g
               clip-path="url(#clipPath125)"
               opacity="0.199997"
               id="g131"><g
                 transform="translate(356.3018,456.9268)"
                 id="g133"><path
                   d="M 0,0 L -13.539,14.867 C -13.539,14.867 -23.361,8.761 -28.14,8.229 C -24.422,2.124 -18.847,-8.23 -18.847,-8.23 C -18.847,-8.23 -12.743,-9.025 0,0"
                   style="fill:#ee127b;fill-opacity:1;fill-rule:nonzero;stroke:none"
                   id="path135" /></g></g></g></g><g
           id="g137"
           transform="translate(218.1211,607.0703)"><path
             d="M 0,0 L 6.428,-7.855 L -2.141,-9.998 L 0,0 z"
             style="fill:#ffffff;fill-opacity:1;fill-rule:nonzero;stroke:none"
             id="path139" /></g><g
           id="g141"
           transform="translate(300.2861,660.4199)"><path
             d="M 0,0 C 0,0 41.017,0.398 69.291,-29.469 C 70.884,-35.84 71.681,-40.221 71.681,-40.221 C 71.681,-40.221 47.389,-10.354 7.566,-6.77 C 5.575,-3.982 0,0 0,0"
             style="fill:#ee127b;fill-opacity:1;fill-rule:nonzero;stroke:none"
             id="path143" /></g><g
           id="g145"
           transform="translate(424.6719,703.8979)"><path
             d="M 0,0 C 0,-30.39 -24.634,-55.027 -55.023,-55.027 C -85.413,-55.027 -110.05,-30.39 -110.05,0 C -110.05,30.388 -85.413,55.025 -55.023,55.025 C -24.634,55.025 0,30.388 0,0"
             style="fill:#9c6e1e;fill-opacity:1;fill-rule:nonzero;stroke:none"
             id="path147" /></g><g
           id="g149"
           transform="translate(425.3281,702.915)"><path
             d="M 0,0 C 0,-28.763 -23.314,-52.079 -52.077,-52.079 C -80.839,-52.079 -104.154,-28.763 -104.154,0 C -104.154,28.761 -80.839,52.077 -52.077,52.077 C -23.314,52.077 0,28.761 0,0"
             style="fill:#f8960f;fill-opacity:1;fill-rule:nonzero;stroke:none"
             id="path151" /></g><g
           id="g153"
           transform="translate(408.2979,702.915)"><path
             d="M 0,0 C 0,-19.356 -15.692,-35.047 -35.047,-35.047 C -54.401,-35.047 -70.094,-19.356 -70.094,0 C -70.094,19.354 -54.401,35.045 -35.047,35.045 C -15.692,35.045 0,19.354 0,0"
             style="fill:#fdd205;fill-opacity:1;fill-rule:nonzero;stroke:none"
             id="path155" /></g><g
           id="g157"
           transform="translate(350.8604,690.2681)"><path
             d="M 0,0 L 6.845,33.469 L 21.679,3.042 L 36.702,33.28 L 44.878,-0.379"
             style="fill:none;stroke:#9c6e1e;stroke-opacity:1;stroke-width:12.17;stroke-linecap:round;stroke-linejoin:round;stroke-miterlimit:4;stroke-dasharray:none"
             id="path159" /></g></g></g></g></svg>